<?xml version="1.0" encoding="utf-8"?>
<!-- Generator: Adobe Illustrator 22.1.0, SVG Export Plug-In . SVG Version: 6.00 Build 0)  -->
<svg version="1.1" id="Layer_1" xmlns="http://www.w3.org/2000/svg" xmlns:xlink="http://www.w3.org/1999/xlink" x="0px" y="0px"
	 viewBox="0 0 512 512" style="enable-background:new 0 0 512 512;" xml:space="preserve">
<style type="text/css">
	.st0{fill:url(#SVGID_1_);}
	.st1{fill:url(#SVGID_2_);}
	.st2{fill:url(#SVGID_3_);}
	.st3{fill:url(#SVGID_4_);}
	.st4{fill:url(#SVGID_5_);}
	.st5{fill:url(#SVGID_6_);}
	.st6{fill:url(#SVGID_7_);}
</style>
<g>
	<linearGradient id="SVGID_1_" gradientUnits="userSpaceOnUse" x1="255.8127" y1="72.0856" x2="255.8127" y2="439.5795">
		<stop  offset="0" style="stop-color:#33AAC1"/>
		<stop  offset="1" style="stop-color:#364049"/>
	</linearGradient>
	<path class="st0" d="M364.4,212c-19.1-23.3-45.4-40-74.5-47.3v-57.1c8.1-0.4,14.6-7.1,14.6-15.3v-6c0-8.5-6.9-15.3-15.3-15.3h-68.7
		c-8.5,0-15.3,6.9-15.3,15.3v6c0,8.5,6.9,15.3,15.3,15.3h1.3v57c-29.1,7.3-55.4,23.9-74.5,47.3c-20.4,25-31.7,56.5-31.7,88.8
		c0,77.3,62.9,140.3,140.3,140.3s140.2-62.9,140.2-140.3C396.1,268.4,384.8,236.9,364.4,212z M217.1,92.3v-6c0-1.8,1.5-3.3,3.3-3.3
		h68.7c1.8,0,3.3,1.5,3.3,3.3v6c0,1.8-1.5,3.3-3.3,3.3h-68.7C218.6,95.7,217.1,94.1,217.1,92.3z M255.8,429
		c-70.7,0-128.3-57.5-128.3-128.3c0-60.2,42.7-112.9,101.4-125.4c2.8-0.6,4.8-3,4.8-5.9v-61.3h44.2v61.3c0,2.8,2,5.3,4.8,5.9
		c58.8,12.5,101.4,65.3,101.4,125.4C384.1,371.5,326.5,429,255.8,429z"/>
	<linearGradient id="SVGID_2_" gradientUnits="userSpaceOnUse" x1="256.3835" y1="72.0856" x2="256.3835" y2="439.5795">
		<stop  offset="0" style="stop-color:#33AAC1"/>
		<stop  offset="1" style="stop-color:#364049"/>
	</linearGradient>
	<path class="st1" d="M383.3,325H129.4c-3.3,0-6-2.7-6-6s2.7-6,6-6h253.9c3.3,0,6,2.7,6,6S386.6,325,383.3,325z"/>
	<linearGradient id="SVGID_3_" gradientUnits="userSpaceOnUse" x1="238.1184" y1="72.0856" x2="238.1184" y2="439.5795">
		<stop  offset="0" style="stop-color:#33AAC1"/>
		<stop  offset="1" style="stop-color:#364049"/>
	</linearGradient>
	<path class="st2" d="M238.1,301.3c-13.4,0-24.3-10.9-24.3-24.3s10.9-24.3,24.3-24.3s24.3,10.9,24.3,24.3S251.5,301.3,238.1,301.3z
		 M238.1,264.7c-6.8,0-12.3,5.5-12.3,12.3s5.5,12.3,12.3,12.3s12.3-5.5,12.3-12.3S244.9,264.7,238.1,264.7z"/>
	<linearGradient id="SVGID_4_" gradientUnits="userSpaceOnUse" x1="299.3071" y1="72.0856" x2="299.3071" y2="439.5795">
		<stop  offset="0" style="stop-color:#33AAC1"/>
		<stop  offset="1" style="stop-color:#364049"/>
	</linearGradient>
	<path class="st3" d="M299.3,384.4c-13.4,0-24.3-10.9-24.3-24.3s10.9-24.3,24.3-24.3s24.3,10.9,24.3,24.3S312.7,384.4,299.3,384.4z
		 M299.3,347.9c-6.8,0-12.3,5.5-12.3,12.3s5.5,12.3,12.3,12.3s12.3-5.5,12.3-12.3S306.1,347.9,299.3,347.9z"/>
	<linearGradient id="SVGID_5_" gradientUnits="userSpaceOnUse" x1="305.2434" y1="72.0856" x2="305.2434" y2="439.5795">
		<stop  offset="0" style="stop-color:#33AAC1"/>
		<stop  offset="1" style="stop-color:#364049"/>
	</linearGradient>
	<path class="st4" d="M305.2,281.2c-11.6,0-21.1-9.5-21.1-21.1s9.5-21.1,21.1-21.1c11.6,0,21.1,9.5,21.1,21.1
		S316.9,281.2,305.2,281.2z M305.2,251c-5,0-9.1,4.1-9.1,9.1c0,5,4.1,9.1,9.1,9.1c5,0,9.1-4.1,9.1-9.1
		C314.3,255.1,310.2,251,305.2,251z"/>
	<linearGradient id="SVGID_6_" gradientUnits="userSpaceOnUse" x1="260.4934" y1="72.0856" x2="260.4934" y2="439.5795">
		<stop  offset="0" style="stop-color:#33AAC1"/>
		<stop  offset="1" style="stop-color:#364049"/>
	</linearGradient>
	<path class="st5" d="M260.5,233.7c-11.6,0-21.1-9.5-21.1-21.1s9.5-21.1,21.1-21.1c11.6,0,21.1,9.5,21.1,21.1
		S272.1,233.7,260.5,233.7z M260.5,203.6c-5,0-9.1,4.1-9.1,9.1c0,5,4.1,9.1,9.1,9.1c5,0,9.1-4.1,9.1-9.1
		C269.6,207.6,265.5,203.6,260.5,203.6z"/>
	<linearGradient id="SVGID_7_" gradientUnits="userSpaceOnUse" x1="233.0955" y1="72.0856" x2="233.0955" y2="439.5795">
		<stop  offset="0" style="stop-color:#33AAC1"/>
		<stop  offset="1" style="stop-color:#364049"/>
	</linearGradient>
	<path class="st6" d="M233.1,402.6c-11.6,0-21.1-9.5-21.1-21.1s9.5-21.1,21.1-21.1c11.6,0,21.1,9.5,21.1,21.1
		S244.7,402.6,233.1,402.6z M233.1,372.5c-5,0-9.1,4.1-9.1,9.1c0,5,4.1,9.1,9.1,9.1c5,0,9.1-4.1,9.1-9.1
		C242.2,376.6,238.1,372.5,233.1,372.5z"/>
</g>
</svg>
